<?xml version="1.0" standalone="no"?><!DOCTYPE svg PUBLIC "-//W3C//DTD SVG 1.1//EN" "http://www.w3.org/Graphics/SVG/1.1/DTD/svg11.dtd"><svg class="icon" height="512" viewBox="0 0 1024 1024" version="1.1" xmlns="http://www.w3.org/2000/svg"><path d="M444.952381 839.92381C670.47619 858.209524 858.209524 670.47619 839.92381 444.952381c-14.628571-175.542857-154.819048-316.952381-329.142858-334.019048-212.114286 18.285714-381.561905 187.733333-399.847619 399.847619 17.066667 174.32381 158.47619 314.514286 334.019048 329.142858zM621.714286 292.571429c20.72381 0 36.571429 15.847619 36.571428 36.571428s-15.847619 36.571429-36.571428 36.571429-36.571429-15.847619-36.571429-36.571429 15.847619-36.571429 36.571429-36.571428z m30.47619 375.466666c6.095238 23.161905-12.190476 45.104762-35.352381 45.104762-15.847619 0-31.695238-10.971429-35.352381-26.819047-12.190476-47.542857-54.857143-82.895238-106.057143-82.895239s-95.085714 35.352381-106.057142 82.895239c-3.657143 15.847619-18.285714 26.819048-35.352381 26.819047-23.161905 0-41.447619-21.942857-35.352381-45.104762C318.171429 588.8 390.095238 530.285714 475.428571 530.285714s157.257143 58.514286 176.761905 137.752381zM329.142857 292.571429c20.72381 0 36.571429 15.847619 36.571429 36.571428s-15.847619 36.571429-36.571429 36.571429-36.571429-15.847619-36.571428-36.571429 15.847619-36.571429 36.571428-36.571428z" fill="#febabc" /><path d="M819.2 202.361905c53.638095 68.266667 88.990476 152.380952 95.085714 243.809524 17.066667 264.533333-201.142857 483.961905-466.895238 466.895238-91.428571-6.095238-175.542857-40.228571-243.809524-95.085715C282.819048 921.6 408.380952 987.428571 548.571429 987.428571c242.590476 0 438.857143-196.266667 438.857142-438.857142 0-140.190476-65.828571-265.752381-168.228571-346.209524z" fill="#febabc" /><path d="M621.714286 329.142857m-36.571429 0a36.571429 36.571429 0 1 0 73.142857 0 36.571429 36.571429 0 1 0-73.142857 0Z" fill="#fd5055" /><path d="M329.142857 329.142857m-36.571428 0a36.571429 36.571429 0 1 0 73.142857 0 36.571429 36.571429 0 1 0-73.142857 0Z" fill="#fd5055" /><path d="M298.666667 668.038095c-6.095238 23.161905 12.190476 45.104762 35.352381 45.104762 15.847619 0 31.695238-10.971429 35.352381-26.819047 12.190476-47.542857 54.857143-82.895238 106.057142-82.895239s95.085714 35.352381 106.057143 82.895239c3.657143 15.847619 18.285714 26.819048 35.352381 26.819047 23.161905 0 41.447619-21.942857 35.352381-45.104762C632.685714 588.8 560.761905 530.285714 475.428571 530.285714s-157.257143 58.514286-176.761904 137.752381z" fill="#fd5055" /><path d="M913.066667 446.171429c-6.095238-91.428571-40.228571-175.542857-95.085715-243.809524C743.619048 108.495238 630.247619 45.104762 502.247619 37.790476 399.847619 31.695238 304.761905 59.733333 226.742857 113.371429c-19.504762 13.409524-21.942857 40.228571-4.87619 56.07619 12.190476 12.190476 31.695238 14.628571 47.542857 3.657143 65.828571-45.104762 148.72381-69.485714 236.495238-63.390476h6.095238c174.32381 17.066667 315.733333 158.47619 329.142857 334.019047 17.066667 226.742857-170.666667 414.47619-396.190476 396.190477-175.542857-14.628571-316.952381-154.819048-334.019048-329.142858v-6.095238c-7.314286-87.771429 17.066667-169.447619 63.390477-236.495238 9.752381-14.628571 8.533333-34.133333-3.657143-47.542857-15.847619-15.847619-42.666667-13.409524-56.076191 4.876191C59.733333 304.761905 31.695238 399.847619 37.790476 502.247619c7.314286 128 70.704762 241.371429 164.571429 316.952381 68.266667 53.638095 152.380952 88.990476 243.809524 95.085714 265.752381 15.847619 483.961905-202.361905 466.895238-468.114285z" fill="#fd5055" /></svg>